<svg xmlns="http://www.w3.org/2000/svg" viewBox="0 0 16 16" width="16" height="16">
  <!-- Clay tablet body with broken top-right corner -->
  <path d="M2 2 L10 1 L11 3 L10 5 L13 6 L14 9 L14 13 L11 15 L5 15 L2 13 L1 9 L1 4Z"
    fill="#c9a96e"/>
  <path d="M2 2 L10 1 L11 3 L10 5 L13 6 L14 9 L14 13 L11 15 L5 15 L2 13 L1 9 L1 4Z"
    fill="none" stroke="#9c7642" stroke-width="0.75"/>

  <!-- Cuneiform wedge marks -->
  <g fill="#6e4f24" opacity="0.85">
    <polygon points="4,5 7,5.7 4,6.4"/>
    <polygon points="8,5 10,5.7 8,6.4"/>
    <polygon points="4,8 7,8.7 4,9.4"/>
    <polygon points="8,8 11,8.7 8,9.4"/>
    <polygon points="4,11 7,11.7 4,12.4"/>
    <polygon points="8,11 10,11.7 8,12.4"/>
  </g>
</svg>
